<svg xmlns="http://www.w3.org/2000/svg" xmlns:xlink="http://www.w3.org/1999/xlink" width="500" zoomAndPan="magnify" viewBox="0 0 375 374.999991" height="500" preserveAspectRatio="xMidYMid meet" version="1.0"><defs><g/></defs><g fill="#f8f8f8" fill-opacity="1"><g transform="translate(85.363014, 226.879108)"><g><path d="M 8.03125 0 L 80.3125 -178.203125 L 87.59375 -178.203125 L 156.875 0 L 148.84375 0 L 128.265625 -53.71875 L 37.65625 -53.71875 L 16.0625 0 Z M 40.40625 -60.484375 L 125.5 -60.484375 L 84.078125 -168.671875 Z M 40.40625 -60.484375 "/></g></g></g><g fill="#f8f8f8" fill-opacity="1"><g transform="translate(178.613535, 154.516916)"><g><path d="M 13.328125 0 L 13.328125 -105.140625 L 17.921875 -105.140625 L 17.921875 0 Z M 13.328125 0 "/></g></g></g><g fill="#f8f8f8" fill-opacity="1"><g transform="translate(22.175195, 301.87085)"><g><path d="M 7.46875 -2.53125 L 2.203125 -2.53125 L 1.0625 0 L 0.03125 0 L 4.359375 -9.46875 L 5.34375 -9.46875 L 9.65625 0 L 8.609375 0 Z M 7.109375 -3.34375 L 4.84375 -8.421875 L 2.5625 -3.34375 Z M 7.109375 -3.34375 "/></g></g></g><g fill="#f8f8f8" fill-opacity="1"><g transform="translate(35.150124, 301.87085)"><g><path d="M 2.546875 -8.59375 L 2.546875 -4.875 L 7.4375 -4.875 L 7.4375 -4.015625 L 2.546875 -4.015625 L 2.546875 0 L 1.546875 0 L 1.546875 -9.46875 L 8.03125 -9.46875 L 8.03125 -8.59375 Z M 2.546875 -8.59375 "/></g></g></g><g fill="#f8f8f8" fill-opacity="1"><g transform="translate(46.990062, 301.87085)"><g><path d="M 8 0 L 5.84375 -3.046875 C 5.59375 -3.015625 5.335938 -3 5.078125 -3 L 2.546875 -3 L 2.546875 0 L 1.546875 0 L 1.546875 -9.46875 L 5.078125 -9.46875 C 6.285156 -9.46875 7.234375 -9.175781 7.921875 -8.59375 C 8.609375 -8.019531 8.953125 -7.226562 8.953125 -6.21875 C 8.953125 -5.476562 8.765625 -4.851562 8.390625 -4.34375 C 8.015625 -3.832031 7.476562 -3.46875 6.78125 -3.25 L 9.09375 0 Z M 5.0625 -3.859375 C 5.988281 -3.859375 6.703125 -4.0625 7.203125 -4.46875 C 7.703125 -4.882812 7.953125 -5.46875 7.953125 -6.21875 C 7.953125 -6.976562 7.703125 -7.5625 7.203125 -7.96875 C 6.703125 -8.382812 5.988281 -8.59375 5.0625 -8.59375 L 2.546875 -8.59375 L 2.546875 -3.859375 Z M 5.0625 -3.859375 "/></g></g></g><g fill="#f8f8f8" fill-opacity="1"><g transform="translate(60.046062, 301.87085)"><g><path d="M 1.546875 -9.46875 L 2.546875 -9.46875 L 2.546875 0 L 1.546875 0 Z M 1.546875 -9.46875 "/></g></g></g><g fill="#f8f8f8" fill-opacity="1"><g transform="translate(67.413625, 301.87085)"><g><path d="M 5.65625 0.078125 C 4.71875 0.078125 3.867188 -0.125 3.109375 -0.53125 C 2.359375 -0.945312 1.769531 -1.519531 1.34375 -2.25 C 0.914062 -2.988281 0.703125 -3.816406 0.703125 -4.734375 C 0.703125 -5.640625 0.914062 -6.457031 1.34375 -7.1875 C 1.769531 -7.925781 2.359375 -8.503906 3.109375 -8.921875 C 3.867188 -9.335938 4.71875 -9.546875 5.65625 -9.546875 C 6.363281 -9.546875 7.015625 -9.425781 7.609375 -9.1875 C 8.203125 -8.957031 8.707031 -8.613281 9.125 -8.15625 L 8.484375 -7.53125 C 7.742188 -8.28125 6.8125 -8.65625 5.6875 -8.65625 C 4.9375 -8.65625 4.253906 -8.484375 3.640625 -8.140625 C 3.035156 -7.796875 2.554688 -7.328125 2.203125 -6.734375 C 1.859375 -6.140625 1.6875 -5.472656 1.6875 -4.734375 C 1.6875 -3.992188 1.859375 -3.328125 2.203125 -2.734375 C 2.554688 -2.140625 3.035156 -1.671875 3.640625 -1.328125 C 4.253906 -0.984375 4.9375 -0.8125 5.6875 -0.8125 C 6.820312 -0.8125 7.753906 -1.191406 8.484375 -1.953125 L 9.125 -1.3125 C 8.707031 -0.863281 8.195312 -0.519531 7.59375 -0.28125 C 7 -0.0390625 6.351562 0.078125 5.65625 0.078125 Z M 5.65625 0.078125 "/></g></g></g><g fill="#f8f8f8" fill-opacity="1"><g transform="translate(80.415571, 301.87085)"><g><path d="M 7.46875 -2.53125 L 2.203125 -2.53125 L 1.0625 0 L 0.03125 0 L 4.359375 -9.46875 L 5.34375 -9.46875 L 9.65625 0 L 8.609375 0 Z M 7.109375 -3.34375 L 4.84375 -8.421875 L 2.5625 -3.34375 Z M 7.109375 -3.34375 "/></g></g></g><g fill="#f8f8f8" fill-opacity="1"><g transform="translate(93.390498, 301.87085)"><g><path d="M 9.453125 -9.46875 L 9.453125 0 L 8.625 0 L 2.546875 -7.671875 L 2.546875 0 L 1.546875 0 L 1.546875 -9.46875 L 2.359375 -9.46875 L 8.453125 -1.78125 L 8.453125 -9.46875 Z M 9.453125 -9.46875 "/></g></g></g><g fill="#f8f8f8" fill-opacity="1"><g transform="translate(107.662544, 301.87085)"><g/></g></g><g fill="#f8f8f8" fill-opacity="1"><g transform="translate(114.489637, 301.87085)"><g><path d="M 1.546875 -9.46875 L 2.546875 -9.46875 L 2.546875 0 L 1.546875 0 Z M 1.546875 -9.46875 "/></g></g></g><g fill="#f8f8f8" fill-opacity="1"><g transform="translate(121.8572, 301.87085)"><g><path d="M 9.453125 -9.46875 L 9.453125 0 L 8.625 0 L 2.546875 -7.671875 L 2.546875 0 L 1.546875 0 L 1.546875 -9.46875 L 2.359375 -9.46875 L 8.453125 -1.78125 L 8.453125 -9.46875 Z M 9.453125 -9.46875 "/></g></g></g><g fill="#f8f8f8" fill-opacity="1"><g transform="translate(136.129252, 301.87085)"><g><path d="M 9.40625 -9.46875 L 5.21875 0 L 4.234375 0 L 0.046875 -9.46875 L 1.125 -9.46875 L 4.75 -1.25 L 8.390625 -9.46875 Z M 9.40625 -9.46875 "/></g></g></g><g fill="#f8f8f8" fill-opacity="1"><g transform="translate(148.847459, 301.87085)"><g><path d="M 8.234375 -0.859375 L 8.234375 0 L 1.546875 0 L 1.546875 -9.46875 L 8.03125 -9.46875 L 8.03125 -8.59375 L 2.546875 -8.59375 L 2.546875 -5.234375 L 7.4375 -5.234375 L 7.4375 -4.375 L 2.546875 -4.375 L 2.546875 -0.859375 Z M 8.234375 -0.859375 "/></g></g></g><g fill="#f8f8f8" fill-opacity="1"><g transform="translate(161.173821, 301.87085)"><g><path d="M 4.15625 0.078125 C 3.445312 0.078125 2.769531 -0.03125 2.125 -0.25 C 1.476562 -0.476562 0.984375 -0.78125 0.640625 -1.15625 L 1.03125 -1.921875 C 1.375 -1.578125 1.828125 -1.296875 2.390625 -1.078125 C 2.960938 -0.867188 3.550781 -0.765625 4.15625 -0.765625 C 5 -0.765625 5.628906 -0.921875 6.046875 -1.234375 C 6.472656 -1.546875 6.6875 -1.953125 6.6875 -2.453125 C 6.6875 -2.828125 6.570312 -3.125 6.34375 -3.34375 C 6.113281 -3.570312 5.832031 -3.75 5.5 -3.875 C 5.164062 -4 4.703125 -4.128906 4.109375 -4.265625 C 3.398438 -4.453125 2.832031 -4.628906 2.40625 -4.796875 C 1.976562 -4.960938 1.613281 -5.210938 1.3125 -5.546875 C 1.007812 -5.890625 0.859375 -6.359375 0.859375 -6.953125 C 0.859375 -7.421875 0.984375 -7.851562 1.234375 -8.25 C 1.492188 -8.644531 1.882812 -8.957031 2.40625 -9.1875 C 2.925781 -9.425781 3.578125 -9.546875 4.359375 -9.546875 C 4.890625 -9.546875 5.414062 -9.46875 5.9375 -9.3125 C 6.457031 -9.164062 6.90625 -8.960938 7.28125 -8.703125 L 6.953125 -7.90625 C 6.554688 -8.164062 6.128906 -8.359375 5.671875 -8.484375 C 5.222656 -8.617188 4.785156 -8.6875 4.359375 -8.6875 C 3.523438 -8.6875 2.898438 -8.523438 2.484375 -8.203125 C 2.066406 -7.890625 1.859375 -7.476562 1.859375 -6.96875 C 1.859375 -6.59375 1.972656 -6.289062 2.203125 -6.0625 C 2.429688 -5.832031 2.71875 -5.65625 3.0625 -5.53125 C 3.40625 -5.414062 3.867188 -5.285156 4.453125 -5.140625 C 5.148438 -4.960938 5.710938 -4.789062 6.140625 -4.625 C 6.566406 -4.457031 6.925781 -4.203125 7.21875 -3.859375 C 7.519531 -3.523438 7.671875 -3.070312 7.671875 -2.5 C 7.671875 -2.019531 7.539062 -1.582031 7.28125 -1.1875 C 7.03125 -0.800781 6.640625 -0.492188 6.109375 -0.265625 C 5.578125 -0.0351562 4.925781 0.078125 4.15625 0.078125 Z M 4.15625 0.078125 "/></g></g></g><g fill="#f8f8f8" fill-opacity="1"><g transform="translate(172.770553, 301.87085)"><g><path d="M 3.375 -8.59375 L 0.046875 -8.59375 L 0.046875 -9.46875 L 7.703125 -9.46875 L 7.703125 -8.59375 L 4.375 -8.59375 L 4.375 0 L 3.375 0 Z M 3.375 -8.59375 "/></g></g></g><g fill="#f8f8f8" fill-opacity="1"><g transform="translate(183.813312, 301.87085)"><g><path d="M 11.359375 -9.46875 L 11.359375 0 L 10.40625 0 L 10.40625 -7.5625 L 6.6875 -1.203125 L 6.21875 -1.203125 L 2.5 -7.53125 L 2.5 0 L 1.546875 0 L 1.546875 -9.46875 L 2.359375 -9.46875 L 6.46875 -2.453125 L 10.546875 -9.46875 Z M 11.359375 -9.46875 "/></g></g></g><g fill="#f8f8f8" fill-opacity="1"><g transform="translate(200.004034, 301.87085)"><g><path d="M 8.234375 -0.859375 L 8.234375 0 L 1.546875 0 L 1.546875 -9.46875 L 8.03125 -9.46875 L 8.03125 -8.59375 L 2.546875 -8.59375 L 2.546875 -5.234375 L 7.4375 -5.234375 L 7.4375 -4.375 L 2.546875 -4.375 L 2.546875 -0.859375 Z M 8.234375 -0.859375 "/></g></g></g><g fill="#f8f8f8" fill-opacity="1"><g transform="translate(212.330396, 301.87085)"><g><path d="M 9.453125 -9.46875 L 9.453125 0 L 8.625 0 L 2.546875 -7.671875 L 2.546875 0 L 1.546875 0 L 1.546875 -9.46875 L 2.359375 -9.46875 L 8.453125 -1.78125 L 8.453125 -9.46875 Z M 9.453125 -9.46875 "/></g></g></g><g fill="#f8f8f8" fill-opacity="1"><g transform="translate(226.602436, 301.87085)"><g><path d="M 3.375 -8.59375 L 0.046875 -8.59375 L 0.046875 -9.46875 L 7.703125 -9.46875 L 7.703125 -8.59375 L 4.375 -8.59375 L 4.375 0 L 3.375 0 Z M 3.375 -8.59375 "/></g></g></g><g fill="#f8f8f8" fill-opacity="1"><g transform="translate(237.645182, 301.87085)"><g/></g></g><g fill="#f8f8f8" fill-opacity="1"><g transform="translate(244.472269, 301.87085)"><g><path d="M 5.078125 -9.46875 C 6.285156 -9.46875 7.234375 -9.175781 7.921875 -8.59375 C 8.609375 -8.019531 8.953125 -7.226562 8.953125 -6.21875 C 8.953125 -5.207031 8.609375 -4.414062 7.921875 -3.84375 C 7.234375 -3.269531 6.285156 -2.984375 5.078125 -2.984375 L 2.546875 -2.984375 L 2.546875 0 L 1.546875 0 L 1.546875 -9.46875 Z M 5.0625 -3.859375 C 5.988281 -3.859375 6.703125 -4.0625 7.203125 -4.46875 C 7.703125 -4.882812 7.953125 -5.46875 7.953125 -6.21875 C 7.953125 -6.976562 7.703125 -7.5625 7.203125 -7.96875 C 6.703125 -8.382812 5.988281 -8.59375 5.0625 -8.59375 L 2.546875 -8.59375 L 2.546875 -3.859375 Z M 5.0625 -3.859375 "/></g></g></g><g fill="#f8f8f8" fill-opacity="1"><g transform="translate(257.460695, 301.87085)"><g><path d="M 1.546875 -9.46875 L 2.546875 -9.46875 L 2.546875 0 L 1.546875 0 Z M 1.546875 -9.46875 "/></g></g></g><g fill="#f8f8f8" fill-opacity="1"><g transform="translate(264.828263, 301.87085)"><g><path d="M 5.671875 0.078125 C 4.734375 0.078125 3.882812 -0.128906 3.125 -0.546875 C 2.363281 -0.960938 1.769531 -1.535156 1.34375 -2.265625 C 0.914062 -2.992188 0.703125 -3.816406 0.703125 -4.734375 C 0.703125 -5.640625 0.914062 -6.457031 1.34375 -7.1875 C 1.769531 -7.914062 2.363281 -8.488281 3.125 -8.90625 C 3.882812 -9.332031 4.734375 -9.546875 5.671875 -9.546875 C 6.609375 -9.546875 7.453125 -9.335938 8.203125 -8.921875 C 8.960938 -8.503906 9.554688 -7.925781 9.984375 -7.1875 C 10.421875 -6.457031 10.640625 -5.640625 10.640625 -4.734375 C 10.640625 -3.816406 10.421875 -2.988281 9.984375 -2.25 C 9.554688 -1.519531 8.960938 -0.945312 8.203125 -0.53125 C 7.453125 -0.125 6.609375 0.078125 5.671875 0.078125 Z M 5.671875 -0.8125 C 6.421875 -0.8125 7.097656 -0.976562 7.703125 -1.3125 C 8.304688 -1.65625 8.78125 -2.125 9.125 -2.71875 C 9.46875 -3.320312 9.640625 -3.992188 9.640625 -4.734375 C 9.640625 -5.472656 9.46875 -6.140625 9.125 -6.734375 C 8.78125 -7.335938 8.304688 -7.804688 7.703125 -8.140625 C 7.097656 -8.484375 6.421875 -8.65625 5.671875 -8.65625 C 4.929688 -8.65625 4.253906 -8.484375 3.640625 -8.140625 C 3.035156 -7.804688 2.554688 -7.335938 2.203125 -6.734375 C 1.859375 -6.140625 1.6875 -5.472656 1.6875 -4.734375 C 1.6875 -3.992188 1.859375 -3.320312 2.203125 -2.71875 C 2.554688 -2.125 3.035156 -1.65625 3.640625 -1.3125 C 4.253906 -0.976562 4.929688 -0.8125 5.671875 -0.8125 Z M 5.671875 -0.8125 "/></g></g></g><g fill="#f8f8f8" fill-opacity="1"><g transform="translate(279.451615, 301.87085)"><g><path d="M 9.453125 -9.46875 L 9.453125 0 L 8.625 0 L 2.546875 -7.671875 L 2.546875 0 L 1.546875 0 L 1.546875 -9.46875 L 2.359375 -9.46875 L 8.453125 -1.78125 L 8.453125 -9.46875 Z M 9.453125 -9.46875 "/></g></g></g><g fill="#f8f8f8" fill-opacity="1"><g transform="translate(293.723655, 301.87085)"><g><path d="M 8.234375 -0.859375 L 8.234375 0 L 1.546875 0 L 1.546875 -9.46875 L 8.03125 -9.46875 L 8.03125 -8.59375 L 2.546875 -8.59375 L 2.546875 -5.234375 L 7.4375 -5.234375 L 7.4375 -4.375 L 2.546875 -4.375 L 2.546875 -0.859375 Z M 8.234375 -0.859375 "/></g></g></g><g fill="#f8f8f8" fill-opacity="1"><g transform="translate(306.050017, 301.87085)"><g><path d="M 8.234375 -0.859375 L 8.234375 0 L 1.546875 0 L 1.546875 -9.46875 L 8.03125 -9.46875 L 8.03125 -8.59375 L 2.546875 -8.59375 L 2.546875 -5.234375 L 7.4375 -5.234375 L 7.4375 -4.375 L 2.546875 -4.375 L 2.546875 -0.859375 Z M 8.234375 -0.859375 "/></g></g></g><g fill="#f8f8f8" fill-opacity="1"><g transform="translate(318.376378, 301.87085)"><g><path d="M 8 0 L 5.84375 -3.046875 C 5.59375 -3.015625 5.335938 -3 5.078125 -3 L 2.546875 -3 L 2.546875 0 L 1.546875 0 L 1.546875 -9.46875 L 5.078125 -9.46875 C 6.285156 -9.46875 7.234375 -9.175781 7.921875 -8.59375 C 8.609375 -8.019531 8.953125 -7.226562 8.953125 -6.21875 C 8.953125 -5.476562 8.765625 -4.851562 8.390625 -4.34375 C 8.015625 -3.832031 7.476562 -3.46875 6.78125 -3.25 L 9.09375 0 Z M 5.0625 -3.859375 C 5.988281 -3.859375 6.703125 -4.0625 7.203125 -4.46875 C 7.703125 -4.882812 7.953125 -5.46875 7.953125 -6.21875 C 7.953125 -6.976562 7.703125 -7.5625 7.203125 -7.96875 C 6.703125 -8.382812 5.988281 -8.59375 5.0625 -8.59375 L 2.546875 -8.59375 L 2.546875 -3.859375 Z M 5.0625 -3.859375 "/></g></g></g><g fill="#f8f8f8" fill-opacity="1"><g transform="translate(331.43237, 301.87085)"><g><path d="M 4.15625 0.078125 C 3.445312 0.078125 2.769531 -0.03125 2.125 -0.25 C 1.476562 -0.476562 0.984375 -0.78125 0.640625 -1.15625 L 1.03125 -1.921875 C 1.375 -1.578125 1.828125 -1.296875 2.390625 -1.078125 C 2.960938 -0.867188 3.550781 -0.765625 4.15625 -0.765625 C 5 -0.765625 5.628906 -0.921875 6.046875 -1.234375 C 6.472656 -1.546875 6.6875 -1.953125 6.6875 -2.453125 C 6.6875 -2.828125 6.570312 -3.125 6.34375 -3.34375 C 6.113281 -3.570312 5.832031 -3.75 5.5 -3.875 C 5.164062 -4 4.703125 -4.128906 4.109375 -4.265625 C 3.398438 -4.453125 2.832031 -4.628906 2.40625 -4.796875 C 1.976562 -4.960938 1.613281 -5.210938 1.3125 -5.546875 C 1.007812 -5.890625 0.859375 -6.359375 0.859375 -6.953125 C 0.859375 -7.421875 0.984375 -7.851562 1.234375 -8.25 C 1.492188 -8.644531 1.882812 -8.957031 2.40625 -9.1875 C 2.925781 -9.425781 3.578125 -9.546875 4.359375 -9.546875 C 4.890625 -9.546875 5.414062 -9.46875 5.9375 -9.3125 C 6.457031 -9.164062 6.90625 -8.960938 7.28125 -8.703125 L 6.953125 -7.90625 C 6.554688 -8.164062 6.128906 -8.359375 5.671875 -8.484375 C 5.222656 -8.617188 4.785156 -8.6875 4.359375 -8.6875 C 3.523438 -8.6875 2.898438 -8.523438 2.484375 -8.203125 C 2.066406 -7.890625 1.859375 -7.476562 1.859375 -6.96875 C 1.859375 -6.59375 1.972656 -6.289062 2.203125 -6.0625 C 2.429688 -5.832031 2.71875 -5.65625 3.0625 -5.53125 C 3.40625 -5.414062 3.867188 -5.285156 4.453125 -5.140625 C 5.148438 -4.960938 5.710938 -4.789062 6.140625 -4.625 C 6.566406 -4.457031 6.925781 -4.203125 7.21875 -3.859375 C 7.519531 -3.523438 7.671875 -3.070312 7.671875 -2.5 C 7.671875 -2.019531 7.539062 -1.582031 7.28125 -1.1875 C 7.03125 -0.800781 6.640625 -0.492188 6.109375 -0.265625 C 5.578125 -0.0351562 4.925781 0.078125 4.15625 0.078125 Z M 4.15625 0.078125 "/></g></g></g><g fill="#f8f8f8" fill-opacity="1"><g transform="translate(137.435641, 255.831298)"><g><path d="M 14.640625 0 L 10.890625 0 L 10.890625 -85.90625 L 36.296875 -85.90625 C 45.578125 -85.90625 52.796875 -83.828125 57.953125 -79.671875 C 63.117188 -75.523438 65.703125 -69.738281 65.703125 -62.3125 C 65.703125 -45.613281 54.894531 -37.265625 33.28125 -37.265625 L 14.640625 -37.265625 Z M 35.21875 -82.640625 L 14.640625 -82.640625 L 14.640625 -40.65625 L 33.390625 -40.65625 C 43.316406 -40.65625 50.554688 -42.347656 55.109375 -45.734375 C 59.671875 -49.117188 61.953125 -54.601562 61.953125 -62.1875 C 61.953125 -69.207031 59.734375 -74.367188 55.296875 -77.671875 C 50.859375 -80.984375 44.164062 -82.640625 35.21875 -82.640625 Z M 35.21875 -82.640625 "/></g></g></g></svg>