<svg xmlns="http://www.w3.org/2000/svg" xmlns:xlink="http://www.w3.org/1999/xlink" width="500" zoomAndPan="magnify" viewBox="0 0 375 374.999991" height="500" preserveAspectRatio="xMidYMid meet" version="1.0"><defs><g/></defs><g fill="#f8f8f8" fill-opacity="1"><g transform="translate(85.363014, 226.879108)"><g><path d="M 8.03125 0 L 80.3125 -178.203125 L 87.59375 -178.203125 L 156.875 0 L 148.84375 0 L 128.265625 -53.71875 L 37.65625 -53.71875 L 16.0625 0 Z M 40.40625 -60.484375 L 125.5 -60.484375 L 84.078125 -168.671875 Z M 40.40625 -60.484375 "/></g></g></g><g fill="#f8f8f8" fill-opacity="1"><g transform="translate(178.613535, 154.516916)"><g><path d="M 13.328125 0 L 13.328125 -105.140625 L 17.921875 -105.140625 L 17.921875 0 Z M 13.328125 0 "/></g></g></g><g fill="#f8f8f8" fill-opacity="1"><g transform="translate(19.12832, 301.87085)"><g><path d="M 7.359375 -2.03125 L 2.953125 -2.03125 L 2.125 0 L -0.125 0 L 4.09375 -9.46875 L 6.25 -9.46875 L 10.484375 0 L 8.1875 0 Z M 6.65625 -3.6875 L 5.15625 -7.3125 L 3.65625 -3.6875 Z M 6.65625 -3.6875 "/></g></g></g><g fill="#f8f8f8" fill-opacity="1"><g transform="translate(32.765324, 301.87085)"><g><path d="M 3.3125 -7.703125 L 3.3125 -5.203125 L 7.6875 -5.203125 L 7.6875 -3.453125 L 3.3125 -3.453125 L 3.3125 0 L 1.125 0 L 1.125 -9.46875 L 8.265625 -9.46875 L 8.265625 -7.703125 Z M 3.3125 -7.703125 "/></g></g></g><g fill="#f8f8f8" fill-opacity="1"><g transform="translate(44.686332, 301.87085)"><g><path d="M 7.15625 0 L 5.328125 -2.640625 L 3.3125 -2.640625 L 3.3125 0 L 1.125 0 L 1.125 -9.46875 L 5.21875 -9.46875 C 6.050781 -9.46875 6.773438 -9.328125 7.390625 -9.046875 C 8.015625 -8.765625 8.492188 -8.363281 8.828125 -7.84375 C 9.160156 -7.332031 9.328125 -6.726562 9.328125 -6.03125 C 9.328125 -5.320312 9.15625 -4.710938 8.8125 -4.203125 C 8.476562 -3.703125 8 -3.316406 7.375 -3.046875 L 9.5 0 Z M 7.109375 -6.03125 C 7.109375 -6.5625 6.9375 -6.96875 6.59375 -7.25 C 6.25 -7.53125 5.75 -7.671875 5.09375 -7.671875 L 3.3125 -7.671875 L 3.3125 -4.375 L 5.09375 -4.375 C 5.75 -4.375 6.25 -4.519531 6.59375 -4.8125 C 6.9375 -5.101562 7.109375 -5.507812 7.109375 -6.03125 Z M 7.109375 -6.03125 "/></g></g></g><g fill="#f8f8f8" fill-opacity="1"><g transform="translate(57.904472, 301.87085)"><g><path d="M 1.125 -9.46875 L 3.3125 -9.46875 L 3.3125 0 L 1.125 0 Z M 1.125 -9.46875 "/></g></g></g><g fill="#f8f8f8" fill-opacity="1"><g transform="translate(65.623334, 301.87085)"><g><path d="M 5.65625 0.15625 C 4.6875 0.15625 3.8125 -0.0507812 3.03125 -0.46875 C 2.25 -0.882812 1.632812 -1.460938 1.1875 -2.203125 C 0.75 -2.953125 0.53125 -3.796875 0.53125 -4.734375 C 0.53125 -5.671875 0.75 -6.507812 1.1875 -7.25 C 1.632812 -7.988281 2.25 -8.566406 3.03125 -8.984375 C 3.8125 -9.410156 4.6875 -9.625 5.65625 -9.625 C 6.476562 -9.625 7.21875 -9.476562 7.875 -9.1875 C 8.539062 -8.90625 9.101562 -8.492188 9.5625 -7.953125 L 8.15625 -6.65625 C 7.507812 -7.394531 6.710938 -7.765625 5.765625 -7.765625 C 5.179688 -7.765625 4.660156 -7.632812 4.203125 -7.375 C 3.742188 -7.113281 3.382812 -6.753906 3.125 -6.296875 C 2.875 -5.835938 2.75 -5.316406 2.75 -4.734375 C 2.75 -4.148438 2.875 -3.625 3.125 -3.15625 C 3.382812 -2.695312 3.742188 -2.335938 4.203125 -2.078125 C 4.660156 -1.828125 5.179688 -1.703125 5.765625 -1.703125 C 6.710938 -1.703125 7.507812 -2.078125 8.15625 -2.828125 L 9.5625 -1.53125 C 9.101562 -0.976562 8.539062 -0.554688 7.875 -0.265625 C 7.207031 0.015625 6.46875 0.15625 5.65625 0.15625 Z M 5.65625 0.15625 "/></g></g></g><g fill="#f8f8f8" fill-opacity="1"><g transform="translate(78.814439, 301.87085)"><g><path d="M 7.359375 -2.03125 L 2.953125 -2.03125 L 2.125 0 L -0.125 0 L 4.09375 -9.46875 L 6.25 -9.46875 L 10.484375 0 L 8.1875 0 Z M 6.65625 -3.6875 L 5.15625 -7.3125 L 3.65625 -3.6875 Z M 6.65625 -3.6875 "/></g></g></g><g fill="#f8f8f8" fill-opacity="1"><g transform="translate(92.451442, 301.87085)"><g><path d="M 9.796875 -9.46875 L 9.796875 0 L 8 0 L 3.28125 -5.75 L 3.28125 0 L 1.125 0 L 1.125 -9.46875 L 2.9375 -9.46875 L 7.640625 -3.71875 L 7.640625 -9.46875 Z M 9.796875 -9.46875 "/></g></g></g><g fill="#f8f8f8" fill-opacity="1"><g transform="translate(106.655933, 301.87085)"><g/></g></g><g fill="#f8f8f8" fill-opacity="1"><g transform="translate(113.76677, 301.87085)"><g><path d="M 1.125 -9.46875 L 3.3125 -9.46875 L 3.3125 0 L 1.125 0 Z M 1.125 -9.46875 "/></g></g></g><g fill="#f8f8f8" fill-opacity="1"><g transform="translate(121.485632, 301.87085)"><g><path d="M 9.796875 -9.46875 L 9.796875 0 L 8 0 L 3.28125 -5.75 L 3.28125 0 L 1.125 0 L 1.125 -9.46875 L 2.9375 -9.46875 L 7.640625 -3.71875 L 7.640625 -9.46875 Z M 9.796875 -9.46875 "/></g></g></g><g fill="#f8f8f8" fill-opacity="1"><g transform="translate(135.69013, 301.87085)"><g><path d="M 10.21875 -9.46875 L 6.125 0 L 3.953125 0 L -0.125 -9.46875 L 2.25 -9.46875 L 5.125 -2.703125 L 8.046875 -9.46875 Z M 10.21875 -9.46875 "/></g></g></g><g fill="#f8f8f8" fill-opacity="1"><g transform="translate(149.056896, 301.87085)"><g><path d="M 8.453125 -1.75 L 8.453125 0 L 1.125 0 L 1.125 -9.46875 L 8.265625 -9.46875 L 8.265625 -7.703125 L 3.296875 -7.703125 L 3.296875 -5.65625 L 7.6875 -5.65625 L 7.6875 -3.953125 L 3.296875 -3.953125 L 3.296875 -1.75 Z M 8.453125 -1.75 "/></g></g></g><g fill="#f8f8f8" fill-opacity="1"><g transform="translate(161.410289, 301.87085)"><g><path d="M 4.234375 0.15625 C 3.484375 0.15625 2.757812 0.0546875 2.0625 -0.140625 C 1.363281 -0.347656 0.800781 -0.613281 0.375 -0.9375 L 1.125 -2.578125 C 1.53125 -2.285156 2.007812 -2.046875 2.5625 -1.859375 C 3.125 -1.679688 3.6875 -1.59375 4.25 -1.59375 C 4.863281 -1.59375 5.316406 -1.6875 5.609375 -1.875 C 5.910156 -2.0625 6.0625 -2.304688 6.0625 -2.609375 C 6.0625 -2.835938 5.972656 -3.023438 5.796875 -3.171875 C 5.628906 -3.316406 5.40625 -3.429688 5.125 -3.515625 C 4.851562 -3.609375 4.484375 -3.710938 4.015625 -3.828125 C 3.296875 -3.992188 2.703125 -4.160156 2.234375 -4.328125 C 1.773438 -4.503906 1.378906 -4.78125 1.046875 -5.15625 C 0.722656 -5.539062 0.5625 -6.046875 0.5625 -6.671875 C 0.5625 -7.222656 0.707031 -7.722656 1 -8.171875 C 1.300781 -8.617188 1.75 -8.972656 2.34375 -9.234375 C 2.945312 -9.492188 3.6875 -9.625 4.5625 -9.625 C 5.15625 -9.625 5.738281 -9.550781 6.3125 -9.40625 C 6.894531 -9.257812 7.40625 -9.050781 7.84375 -8.78125 L 7.15625 -7.125 C 6.289062 -7.613281 5.421875 -7.859375 4.546875 -7.859375 C 3.929688 -7.859375 3.476562 -7.757812 3.1875 -7.5625 C 2.894531 -7.363281 2.75 -7.101562 2.75 -6.78125 C 2.75 -6.457031 2.914062 -6.21875 3.25 -6.0625 C 3.582031 -5.90625 4.097656 -5.75 4.796875 -5.59375 C 5.515625 -5.425781 6.101562 -5.253906 6.5625 -5.078125 C 7.03125 -4.910156 7.425781 -4.640625 7.75 -4.265625 C 8.082031 -3.898438 8.25 -3.398438 8.25 -2.765625 C 8.25 -2.222656 8.097656 -1.726562 7.796875 -1.28125 C 7.492188 -0.84375 7.039062 -0.492188 6.4375 -0.234375 C 5.832031 0.0234375 5.097656 0.15625 4.234375 0.15625 Z M 4.234375 0.15625 "/></g></g></g><g fill="#f8f8f8" fill-opacity="1"><g transform="translate(173.317797, 301.87085)"><g><path d="M 3.078125 -7.671875 L 0.046875 -7.671875 L 0.046875 -9.46875 L 8.296875 -9.46875 L 8.296875 -7.671875 L 5.265625 -7.671875 L 5.265625 0 L 3.078125 0 Z M 3.078125 -7.671875 "/></g></g></g><g fill="#f8f8f8" fill-opacity="1"><g transform="translate(184.955065, 301.87085)"><g><path d="M 9.734375 0 L 9.71875 -5.671875 L 6.9375 -1 L 5.953125 -1 L 3.171875 -5.5625 L 3.171875 0 L 1.125 0 L 1.125 -9.46875 L 2.9375 -9.46875 L 6.46875 -3.578125 L 9.96875 -9.46875 L 11.765625 -9.46875 L 11.78125 0 Z M 9.734375 0 "/></g></g></g><g fill="#f8f8f8" fill-opacity="1"><g transform="translate(201.145787, 301.87085)"><g><path d="M 8.453125 -1.75 L 8.453125 0 L 1.125 0 L 1.125 -9.46875 L 8.265625 -9.46875 L 8.265625 -7.703125 L 3.296875 -7.703125 L 3.296875 -5.65625 L 7.6875 -5.65625 L 7.6875 -3.953125 L 3.296875 -3.953125 L 3.296875 -1.75 Z M 8.453125 -1.75 "/></g></g></g><g fill="#f8f8f8" fill-opacity="1"><g transform="translate(213.49918, 301.87085)"><g><path d="M 9.796875 -9.46875 L 9.796875 0 L 8 0 L 3.28125 -5.75 L 3.28125 0 L 1.125 0 L 1.125 -9.46875 L 2.9375 -9.46875 L 7.640625 -3.71875 L 7.640625 -9.46875 Z M 9.796875 -9.46875 "/></g></g></g><g fill="#f8f8f8" fill-opacity="1"><g transform="translate(227.703677, 301.87085)"><g><path d="M 3.078125 -7.671875 L 0.046875 -7.671875 L 0.046875 -9.46875 L 8.296875 -9.46875 L 8.296875 -7.671875 L 5.265625 -7.671875 L 5.265625 0 L 3.078125 0 Z M 3.078125 -7.671875 "/></g></g></g><g fill="#f8f8f8" fill-opacity="1"><g transform="translate(239.340944, 301.87085)"><g/></g></g><g fill="#f8f8f8" fill-opacity="1"><g transform="translate(246.451776, 301.87085)"><g><path d="M 5.21875 -9.46875 C 6.050781 -9.46875 6.773438 -9.328125 7.390625 -9.046875 C 8.015625 -8.765625 8.492188 -8.363281 8.828125 -7.84375 C 9.160156 -7.332031 9.328125 -6.726562 9.328125 -6.03125 C 9.328125 -5.332031 9.160156 -4.722656 8.828125 -4.203125 C 8.492188 -3.691406 8.015625 -3.296875 7.390625 -3.015625 C 6.773438 -2.742188 6.050781 -2.609375 5.21875 -2.609375 L 3.3125 -2.609375 L 3.3125 0 L 1.125 0 L 1.125 -9.46875 Z M 5.09375 -4.390625 C 5.75 -4.390625 6.25 -4.53125 6.59375 -4.8125 C 6.9375 -5.101562 7.109375 -5.507812 7.109375 -6.03125 C 7.109375 -6.5625 6.9375 -6.96875 6.59375 -7.25 C 6.25 -7.53125 5.75 -7.671875 5.09375 -7.671875 L 3.3125 -7.671875 L 3.3125 -4.390625 Z M 5.09375 -4.390625 "/></g></g></g><g fill="#f8f8f8" fill-opacity="1"><g transform="translate(259.629372, 301.87085)"><g><path d="M 1.125 -9.46875 L 3.3125 -9.46875 L 3.3125 0 L 1.125 0 Z M 1.125 -9.46875 "/></g></g></g><g fill="#f8f8f8" fill-opacity="1"><g transform="translate(267.348228, 301.87085)"><g><path d="M 5.703125 0.15625 C 4.722656 0.15625 3.835938 -0.0507812 3.046875 -0.46875 C 2.253906 -0.894531 1.632812 -1.476562 1.1875 -2.21875 C 0.75 -2.96875 0.53125 -3.804688 0.53125 -4.734375 C 0.53125 -5.660156 0.75 -6.492188 1.1875 -7.234375 C 1.632812 -7.984375 2.253906 -8.566406 3.046875 -8.984375 C 3.835938 -9.410156 4.722656 -9.625 5.703125 -9.625 C 6.679688 -9.625 7.5625 -9.410156 8.34375 -8.984375 C 9.132812 -8.566406 9.753906 -7.984375 10.203125 -7.234375 C 10.648438 -6.492188 10.875 -5.660156 10.875 -4.734375 C 10.875 -3.804688 10.648438 -2.96875 10.203125 -2.21875 C 9.753906 -1.476562 9.132812 -0.894531 8.34375 -0.46875 C 7.5625 -0.0507812 6.679688 0.15625 5.703125 0.15625 Z M 5.703125 -1.703125 C 6.265625 -1.703125 6.769531 -1.828125 7.21875 -2.078125 C 7.664062 -2.335938 8.015625 -2.695312 8.265625 -3.15625 C 8.523438 -3.625 8.65625 -4.148438 8.65625 -4.734375 C 8.65625 -5.316406 8.523438 -5.835938 8.265625 -6.296875 C 8.015625 -6.753906 7.664062 -7.113281 7.21875 -7.375 C 6.769531 -7.632812 6.265625 -7.765625 5.703125 -7.765625 C 5.140625 -7.765625 4.632812 -7.632812 4.1875 -7.375 C 3.738281 -7.113281 3.382812 -6.753906 3.125 -6.296875 C 2.875 -5.835938 2.75 -5.316406 2.75 -4.734375 C 2.75 -4.148438 2.875 -3.625 3.125 -3.15625 C 3.382812 -2.695312 3.738281 -2.335938 4.1875 -2.078125 C 4.632812 -1.828125 5.140625 -1.703125 5.703125 -1.703125 Z M 5.703125 -1.703125 "/></g></g></g><g fill="#f8f8f8" fill-opacity="1"><g transform="translate(282.039145, 301.87085)"><g><path d="M 9.796875 -9.46875 L 9.796875 0 L 8 0 L 3.28125 -5.75 L 3.28125 0 L 1.125 0 L 1.125 -9.46875 L 2.9375 -9.46875 L 7.640625 -3.71875 L 7.640625 -9.46875 Z M 9.796875 -9.46875 "/></g></g></g><g fill="#f8f8f8" fill-opacity="1"><g transform="translate(296.243643, 301.87085)"><g><path d="M 8.453125 -1.75 L 8.453125 0 L 1.125 0 L 1.125 -9.46875 L 8.265625 -9.46875 L 8.265625 -7.703125 L 3.296875 -7.703125 L 3.296875 -5.65625 L 7.6875 -5.65625 L 7.6875 -3.953125 L 3.296875 -3.953125 L 3.296875 -1.75 Z M 8.453125 -1.75 "/></g></g></g><g fill="#f8f8f8" fill-opacity="1"><g transform="translate(308.597035, 301.87085)"><g><path d="M 8.453125 -1.75 L 8.453125 0 L 1.125 0 L 1.125 -9.46875 L 8.265625 -9.46875 L 8.265625 -7.703125 L 3.296875 -7.703125 L 3.296875 -5.65625 L 7.6875 -5.65625 L 7.6875 -3.953125 L 3.296875 -3.953125 L 3.296875 -1.75 Z M 8.453125 -1.75 "/></g></g></g><g fill="#f8f8f8" fill-opacity="1"><g transform="translate(320.950428, 301.87085)"><g><path d="M 7.15625 0 L 5.328125 -2.640625 L 3.3125 -2.640625 L 3.3125 0 L 1.125 0 L 1.125 -9.46875 L 5.21875 -9.46875 C 6.050781 -9.46875 6.773438 -9.328125 7.390625 -9.046875 C 8.015625 -8.765625 8.492188 -8.363281 8.828125 -7.84375 C 9.160156 -7.332031 9.328125 -6.726562 9.328125 -6.03125 C 9.328125 -5.320312 9.15625 -4.710938 8.8125 -4.203125 C 8.476562 -3.703125 8 -3.316406 7.375 -3.046875 L 9.5 0 Z M 7.109375 -6.03125 C 7.109375 -6.5625 6.9375 -6.96875 6.59375 -7.25 C 6.25 -7.53125 5.75 -7.671875 5.09375 -7.671875 L 3.3125 -7.671875 L 3.3125 -4.375 L 5.09375 -4.375 C 5.75 -4.375 6.25 -4.519531 6.59375 -4.8125 C 6.9375 -5.101562 7.109375 -5.507812 7.109375 -6.03125 Z M 7.109375 -6.03125 "/></g></g></g><g fill="#f8f8f8" fill-opacity="1"><g transform="translate(334.168559, 301.87085)"><g><path d="M 4.234375 0.15625 C 3.484375 0.15625 2.757812 0.0546875 2.0625 -0.140625 C 1.363281 -0.347656 0.800781 -0.613281 0.375 -0.9375 L 1.125 -2.578125 C 1.53125 -2.285156 2.007812 -2.046875 2.5625 -1.859375 C 3.125 -1.679688 3.6875 -1.59375 4.25 -1.59375 C 4.863281 -1.59375 5.316406 -1.6875 5.609375 -1.875 C 5.910156 -2.0625 6.0625 -2.304688 6.0625 -2.609375 C 6.0625 -2.835938 5.972656 -3.023438 5.796875 -3.171875 C 5.628906 -3.316406 5.40625 -3.429688 5.125 -3.515625 C 4.851562 -3.609375 4.484375 -3.710938 4.015625 -3.828125 C 3.296875 -3.992188 2.703125 -4.160156 2.234375 -4.328125 C 1.773438 -4.503906 1.378906 -4.78125 1.046875 -5.15625 C 0.722656 -5.539062 0.5625 -6.046875 0.5625 -6.671875 C 0.5625 -7.222656 0.707031 -7.722656 1 -8.171875 C 1.300781 -8.617188 1.75 -8.972656 2.34375 -9.234375 C 2.945312 -9.492188 3.6875 -9.625 4.5625 -9.625 C 5.15625 -9.625 5.738281 -9.550781 6.3125 -9.40625 C 6.894531 -9.257812 7.40625 -9.050781 7.84375 -8.78125 L 7.15625 -7.125 C 6.289062 -7.613281 5.421875 -7.859375 4.546875 -7.859375 C 3.929688 -7.859375 3.476562 -7.757812 3.1875 -7.5625 C 2.894531 -7.363281 2.75 -7.101562 2.75 -6.78125 C 2.75 -6.457031 2.914062 -6.21875 3.25 -6.0625 C 3.582031 -5.90625 4.097656 -5.75 4.796875 -5.59375 C 5.515625 -5.425781 6.101562 -5.253906 6.5625 -5.078125 C 7.03125 -4.910156 7.425781 -4.640625 7.75 -4.265625 C 8.082031 -3.898438 8.25 -3.398438 8.25 -2.765625 C 8.25 -2.222656 8.097656 -1.726562 7.796875 -1.28125 C 7.492188 -0.84375 7.039062 -0.492188 6.4375 -0.234375 C 5.832031 0.0234375 5.097656 0.15625 4.234375 0.15625 Z M 4.234375 0.15625 "/></g></g></g><g fill="#f8f8f8" fill-opacity="1"><g transform="translate(137.435641, 255.831298)"><g><path d="M 14.640625 0 L 10.890625 0 L 10.890625 -85.90625 L 36.296875 -85.90625 C 45.578125 -85.90625 52.796875 -83.828125 57.953125 -79.671875 C 63.117188 -75.523438 65.703125 -69.738281 65.703125 -62.3125 C 65.703125 -45.613281 54.894531 -37.265625 33.28125 -37.265625 L 14.640625 -37.265625 Z M 35.21875 -82.640625 L 14.640625 -82.640625 L 14.640625 -40.65625 L 33.390625 -40.65625 C 43.316406 -40.65625 50.554688 -42.347656 55.109375 -45.734375 C 59.671875 -49.117188 61.953125 -54.601562 61.953125 -62.1875 C 61.953125 -69.207031 59.734375 -74.367188 55.296875 -77.671875 C 50.859375 -80.984375 44.164062 -82.640625 35.21875 -82.640625 Z M 35.21875 -82.640625 "/></g></g></g></svg>